<mxfile host="app.diagrams.net" modified="2023-02-19T17:25:47.830Z" agent="5.0 (Windows NT 10.0; Win64; x64) AppleWebKit/537.36 (KHTML, like Gecko) Chrome/110.0.0.0 Safari/537.36" etag="gAVV4zx9_CIN5LalMHiz" version="20.8.20" type="github">
  <diagram name="第 1 页" id="VrmpzFLzlZWFYZ5VRnFq">
    <mxGraphModel dx="1050" dy="493" grid="1" gridSize="10" guides="1" tooltips="1" connect="1" arrows="1" fold="1" page="1" pageScale="1" pageWidth="600" pageHeight="720" math="0" shadow="0">
      <root>
        <mxCell id="0" />
        <mxCell id="1" parent="0" />
        <mxCell id="IBrZbxC6G9MoHd_QeGUf-2" value="" style="rounded=1;whiteSpace=wrap;html=1;fontFamily=Comic Sans MS;fontSize=12;dashed=1;arcSize=2;" vertex="1" parent="1">
          <mxGeometry x="4" y="263" width="576" height="421" as="geometry" />
        </mxCell>
        <mxCell id="IBrZbxC6G9MoHd_QeGUf-232" value="" style="rounded=1;whiteSpace=wrap;html=1;dashed=1;direction=south;container=0;" vertex="1" parent="1">
          <mxGeometry x="166" y="609" width="390" height="28" as="geometry" />
        </mxCell>
        <mxCell id="IBrZbxC6G9MoHd_QeGUf-1" value="" style="rounded=1;whiteSpace=wrap;html=1;fontFamily=Comic Sans MS;fontSize=12;dashed=1;arcSize=2;" vertex="1" parent="1">
          <mxGeometry x="4" y="8" width="576" height="233" as="geometry" />
        </mxCell>
        <mxCell id="IBrZbxC6G9MoHd_QeGUf-3" value="" style="rounded=1;whiteSpace=wrap;html=1;dashed=1;direction=south;container=0;" vertex="1" parent="1">
          <mxGeometry x="425" y="50" width="110" height="34" as="geometry" />
        </mxCell>
        <mxCell id="IBrZbxC6G9MoHd_QeGUf-4" value="Aggregating items &lt;br&gt;as a basket" style="rounded=1;whiteSpace=wrap;html=1;fontSize=14;fillColor=#d5e8d4;strokeColor=#82b366;" vertex="1" parent="1">
          <mxGeometry x="30" y="426" width="129" height="40" as="geometry" />
        </mxCell>
        <mxCell id="IBrZbxC6G9MoHd_QeGUf-5" value="&lt;p style=&quot;line-height: 0%;&quot;&gt;&lt;font style=&quot;font-size: 14px;&quot;&gt;&lt;font face=&quot;Comic Sans MS&quot; style=&quot;&quot;&gt;Basket&amp;nbsp;&lt;/font&gt;&lt;span style=&quot;font-family: &amp;quot;Comic Sans MS&amp;quot;; background-color: initial;&quot;&gt;sequence&lt;/span&gt;&lt;/font&gt;&lt;/p&gt;" style="text;strokeColor=none;align=center;fillColor=none;html=1;verticalAlign=middle;whiteSpace=wrap;rounded=0;dashed=1;" vertex="1" parent="1">
          <mxGeometry x="30" y="644" width="108.5" height="30" as="geometry" />
        </mxCell>
        <mxCell id="IBrZbxC6G9MoHd_QeGUf-6" value="" style="curved=1;endArrow=classic;html=1;rounded=0;fontFamily=Comic Sans MS;fontSize=14;entryX=0.5;entryY=1;entryDx=0;entryDy=0;" edge="1" parent="1" target="IBrZbxC6G9MoHd_QeGUf-4">
          <mxGeometry width="50" height="50" relative="1" as="geometry">
            <mxPoint x="163" y="624" as="sourcePoint" />
            <mxPoint x="91.5" y="476" as="targetPoint" />
            <Array as="points">
              <mxPoint x="90" y="596" />
            </Array>
          </mxGeometry>
        </mxCell>
        <mxCell id="IBrZbxC6G9MoHd_QeGUf-7" value="" style="curved=1;endArrow=classic;html=1;rounded=0;fontFamily=Comic Sans MS;fontSize=14;exitX=0.5;exitY=0;exitDx=0;exitDy=0;entryX=1;entryY=1.253;entryDx=0;entryDy=0;entryPerimeter=0;" edge="1" parent="1" source="IBrZbxC6G9MoHd_QeGUf-4" target="IBrZbxC6G9MoHd_QeGUf-161">
          <mxGeometry width="50" height="50" relative="1" as="geometry">
            <mxPoint x="75" y="343" as="sourcePoint" />
            <mxPoint x="170" y="314" as="targetPoint" />
            <Array as="points">
              <mxPoint x="100" y="350" />
            </Array>
          </mxGeometry>
        </mxCell>
        <mxCell id="IBrZbxC6G9MoHd_QeGUf-8" value="&lt;p style=&quot;line-height: 0%;&quot;&gt;&lt;font face=&quot;Comic Sans MS&quot;&gt;&lt;span style=&quot;font-size: 11px;&quot;&gt;...&lt;/span&gt;&lt;/font&gt;&lt;/p&gt;" style="text;strokeColor=none;align=center;fillColor=none;html=1;verticalAlign=middle;whiteSpace=wrap;rounded=0;dashed=1;" vertex="1" parent="1">
          <mxGeometry x="406" y="283" width="30" height="30" as="geometry" />
        </mxCell>
        <mxCell id="IBrZbxC6G9MoHd_QeGUf-9" value="" style="rounded=1;whiteSpace=wrap;html=1;dashed=1;direction=south;container=0;" vertex="1" parent="1">
          <mxGeometry x="172" y="644" width="110" height="34" as="geometry" />
        </mxCell>
        <mxCell id="IBrZbxC6G9MoHd_QeGUf-10" value="&lt;font face=&quot;Times New Roman&quot;&gt;&lt;font style=&quot;font-size: 18px;&quot;&gt;&amp;nbsp;&lt;/font&gt;&lt;font style=&quot;font-size: 16px;&quot;&gt;i&lt;/font&gt;&lt;sub style=&quot;&quot;&gt;&lt;font style=&quot;font-size: 11px;&quot;&gt;1&lt;/font&gt;&lt;/sub&gt;&lt;/font&gt;" style="ellipse;whiteSpace=wrap;html=1;aspect=fixed;fillColor=#ffe6cc;strokeColor=#d79b00;container=0;" vertex="1" parent="1">
          <mxGeometry x="180" y="650.5" width="22" height="22" as="geometry" />
        </mxCell>
        <mxCell id="IBrZbxC6G9MoHd_QeGUf-11" value="&lt;font style=&quot;&quot; face=&quot;Times New Roman&quot;&gt;&lt;font style=&quot;font-size: 16px;&quot;&gt;&amp;nbsp;i&lt;/font&gt;&lt;sub style=&quot;&quot;&gt;&lt;font style=&quot;font-size: 11px;&quot;&gt;2&lt;/font&gt;&lt;/sub&gt;&lt;/font&gt;" style="triangle;whiteSpace=wrap;html=1;fontFamily=Comic Sans MS;fontSize=14;direction=north;fillColor=#fff2cc;strokeColor=#d6b656;container=0;" vertex="1" parent="1">
          <mxGeometry x="217.5" y="651" width="22" height="22" as="geometry" />
        </mxCell>
        <mxCell id="IBrZbxC6G9MoHd_QeGUf-12" value="&lt;font style=&quot;&quot; face=&quot;Times New Roman&quot;&gt;&lt;font style=&quot;font-size: 16px;&quot;&gt;&amp;nbsp;i&lt;/font&gt;&lt;sub style=&quot;&quot;&gt;&lt;font style=&quot;font-size: 11px;&quot;&gt;3&lt;/font&gt;&lt;/sub&gt;&lt;/font&gt;" style="rhombus;whiteSpace=wrap;html=1;fontFamily=Comic Sans MS;fontSize=14;fillColor=#f8cecc;strokeColor=#b85450;container=0;" vertex="1" parent="1">
          <mxGeometry x="254" y="650.5" width="22" height="22" as="geometry" />
        </mxCell>
        <mxCell id="IBrZbxC6G9MoHd_QeGUf-13" value="&lt;p style=&quot;line-height: 0%;&quot;&gt;&lt;font face=&quot;Comic Sans MS&quot;&gt;&lt;span style=&quot;font-size: 11px;&quot;&gt;...&lt;/span&gt;&lt;/font&gt;&lt;/p&gt;" style="text;strokeColor=none;align=center;fillColor=none;html=1;verticalAlign=middle;whiteSpace=wrap;rounded=0;dashed=1;" vertex="1" parent="1">
          <mxGeometry x="407" y="639.5" width="30" height="30" as="geometry" />
        </mxCell>
        <mxCell id="IBrZbxC6G9MoHd_QeGUf-15" value="&lt;p style=&quot;line-height: 0%;&quot;&gt;&lt;font style=&quot;font-size: 14px;&quot; face=&quot;Comic Sans MS&quot;&gt;Item Emb.&lt;/font&gt;&lt;/p&gt;" style="text;strokeColor=none;align=center;fillColor=none;html=1;verticalAlign=middle;whiteSpace=wrap;rounded=0;dashed=1;" vertex="1" parent="1">
          <mxGeometry x="66" y="610" width="76.5" height="30" as="geometry" />
        </mxCell>
        <mxCell id="IBrZbxC6G9MoHd_QeGUf-16" value="&lt;p style=&quot;line-height: 0%;&quot;&gt;&lt;font style=&quot;font-size: 14px;&quot; face=&quot;Comic Sans MS&quot;&gt;Whole-basket&lt;/font&gt;&lt;/p&gt;&lt;p style=&quot;line-height: 0%;&quot;&gt;&lt;font face=&quot;Comic Sans MS&quot;&gt;&lt;span style=&quot;font-size: 14px;&quot;&gt;Encoding&lt;/span&gt;&lt;/font&gt;&lt;/p&gt;" style="text;strokeColor=none;align=center;fillColor=none;html=1;verticalAlign=middle;whiteSpace=wrap;rounded=0;dashed=1;" vertex="1" parent="1">
          <mxGeometry x="413.5" y="565" width="110.5" height="30" as="geometry" />
        </mxCell>
        <mxCell id="IBrZbxC6G9MoHd_QeGUf-17" value="&lt;p style=&quot;line-height: 0%;&quot;&gt;&lt;font style=&quot;font-size: 14px;&quot; face=&quot;Comic Sans MS&quot;&gt;Positional&lt;/font&gt;&lt;/p&gt;&lt;p style=&quot;line-height: 0%;&quot;&gt;&lt;font style=&quot;font-size: 14px;&quot; face=&quot;Comic Sans MS&quot;&gt;Encoding&lt;/font&gt;&lt;/p&gt;" style="text;strokeColor=none;align=center;fillColor=none;html=1;verticalAlign=middle;whiteSpace=wrap;rounded=0;dashed=1;" vertex="1" parent="1">
          <mxGeometry x="181.5" y="565" width="98.5" height="30" as="geometry" />
        </mxCell>
        <mxCell id="IBrZbxC6G9MoHd_QeGUf-31" value="" style="group;fillColor=#d5e8d4;strokeColor=#82b366;" vertex="1" connectable="0" parent="1">
          <mxGeometry x="212" y="614" width="32" height="18" as="geometry" />
        </mxCell>
        <mxCell id="IBrZbxC6G9MoHd_QeGUf-32" value="" style="rounded=0;whiteSpace=wrap;html=1;fontFamily=Comic Sans MS;fontSize=11;fillColor=#fff2cc;strokeColor=#d6b656;gradientColor=#ffd966;" vertex="1" parent="IBrZbxC6G9MoHd_QeGUf-31">
          <mxGeometry width="32" height="18" as="geometry" />
        </mxCell>
        <mxCell id="IBrZbxC6G9MoHd_QeGUf-33" value="" style="endArrow=none;html=1;rounded=0;fontFamily=Comic Sans MS;fontSize=11;entryX=0.5;entryY=0;entryDx=0;entryDy=0;exitX=0.5;exitY=1;exitDx=0;exitDy=0;fillColor=#fff2cc;strokeColor=#d6b656;gradientColor=#ffd966;" edge="1" parent="IBrZbxC6G9MoHd_QeGUf-31" source="IBrZbxC6G9MoHd_QeGUf-32" target="IBrZbxC6G9MoHd_QeGUf-32">
          <mxGeometry width="50" height="50" relative="1" as="geometry">
            <mxPoint x="-40" y="81" as="sourcePoint" />
            <mxPoint y="36" as="targetPoint" />
          </mxGeometry>
        </mxCell>
        <mxCell id="IBrZbxC6G9MoHd_QeGUf-34" value="" style="group;fillColor=#d5e8d4;strokeColor=#82b366;" vertex="1" connectable="0" parent="1">
          <mxGeometry x="251" y="614" width="32" height="18" as="geometry" />
        </mxCell>
        <mxCell id="IBrZbxC6G9MoHd_QeGUf-35" value="" style="rounded=0;whiteSpace=wrap;html=1;fontFamily=Comic Sans MS;fontSize=11;fillColor=#fff2cc;strokeColor=#d6b656;gradientColor=#ffd966;" vertex="1" parent="IBrZbxC6G9MoHd_QeGUf-34">
          <mxGeometry width="32" height="18" as="geometry" />
        </mxCell>
        <mxCell id="IBrZbxC6G9MoHd_QeGUf-36" value="" style="endArrow=none;html=1;rounded=0;fontFamily=Comic Sans MS;fontSize=11;entryX=0.5;entryY=0;entryDx=0;entryDy=0;exitX=0.5;exitY=1;exitDx=0;exitDy=0;fillColor=#fff2cc;strokeColor=#d6b656;gradientColor=#ffd966;" edge="1" parent="IBrZbxC6G9MoHd_QeGUf-34" source="IBrZbxC6G9MoHd_QeGUf-35" target="IBrZbxC6G9MoHd_QeGUf-35">
          <mxGeometry width="50" height="50" relative="1" as="geometry">
            <mxPoint x="-40" y="81" as="sourcePoint" />
            <mxPoint y="36" as="targetPoint" />
          </mxGeometry>
        </mxCell>
        <mxCell id="IBrZbxC6G9MoHd_QeGUf-40" value="" style="group;fillColor=#d5e8d4;strokeColor=#82b366;" vertex="1" connectable="0" parent="1">
          <mxGeometry x="292.5" y="614" width="32" height="18" as="geometry" />
        </mxCell>
        <mxCell id="IBrZbxC6G9MoHd_QeGUf-41" value="" style="rounded=0;whiteSpace=wrap;html=1;fontFamily=Comic Sans MS;fontSize=11;fillColor=#fff2cc;strokeColor=#d6b656;gradientColor=#ffd966;" vertex="1" parent="IBrZbxC6G9MoHd_QeGUf-40">
          <mxGeometry width="32" height="18" as="geometry" />
        </mxCell>
        <mxCell id="IBrZbxC6G9MoHd_QeGUf-42" value="" style="endArrow=none;html=1;rounded=0;fontFamily=Comic Sans MS;fontSize=11;entryX=0.5;entryY=0;entryDx=0;entryDy=0;exitX=0.5;exitY=1;exitDx=0;exitDy=0;fillColor=#fff2cc;strokeColor=#d6b656;gradientColor=#ffd966;" edge="1" parent="IBrZbxC6G9MoHd_QeGUf-40" source="IBrZbxC6G9MoHd_QeGUf-41" target="IBrZbxC6G9MoHd_QeGUf-41">
          <mxGeometry width="50" height="50" relative="1" as="geometry">
            <mxPoint x="-40" y="81" as="sourcePoint" />
            <mxPoint y="36" as="targetPoint" />
          </mxGeometry>
        </mxCell>
        <mxCell id="IBrZbxC6G9MoHd_QeGUf-43" value="" style="group;fillColor=#d5e8d4;strokeColor=#82b366;" vertex="1" connectable="0" parent="1">
          <mxGeometry x="333" y="614" width="32" height="18" as="geometry" />
        </mxCell>
        <mxCell id="IBrZbxC6G9MoHd_QeGUf-44" value="" style="rounded=0;whiteSpace=wrap;html=1;fontFamily=Comic Sans MS;fontSize=11;fillColor=#fff2cc;strokeColor=#d6b656;gradientColor=#ffd966;" vertex="1" parent="IBrZbxC6G9MoHd_QeGUf-43">
          <mxGeometry width="32" height="18" as="geometry" />
        </mxCell>
        <mxCell id="IBrZbxC6G9MoHd_QeGUf-45" value="" style="endArrow=none;html=1;rounded=0;fontFamily=Comic Sans MS;fontSize=11;entryX=0.5;entryY=0;entryDx=0;entryDy=0;exitX=0.5;exitY=1;exitDx=0;exitDy=0;fillColor=#fff2cc;strokeColor=#d6b656;gradientColor=#ffd966;" edge="1" parent="IBrZbxC6G9MoHd_QeGUf-43" source="IBrZbxC6G9MoHd_QeGUf-44" target="IBrZbxC6G9MoHd_QeGUf-44">
          <mxGeometry width="50" height="50" relative="1" as="geometry">
            <mxPoint x="-40" y="81" as="sourcePoint" />
            <mxPoint y="36" as="targetPoint" />
          </mxGeometry>
        </mxCell>
        <mxCell id="IBrZbxC6G9MoHd_QeGUf-46" value="" style="group;fillColor=#d5e8d4;strokeColor=#82b366;" vertex="1" connectable="0" parent="1">
          <mxGeometry x="372" y="614" width="32" height="18" as="geometry" />
        </mxCell>
        <mxCell id="IBrZbxC6G9MoHd_QeGUf-47" value="" style="rounded=0;whiteSpace=wrap;html=1;fontFamily=Comic Sans MS;fontSize=11;fillColor=#fff2cc;strokeColor=#d6b656;gradientColor=#ffd966;" vertex="1" parent="IBrZbxC6G9MoHd_QeGUf-46">
          <mxGeometry width="32" height="18" as="geometry" />
        </mxCell>
        <mxCell id="IBrZbxC6G9MoHd_QeGUf-48" value="" style="endArrow=none;html=1;rounded=0;fontFamily=Comic Sans MS;fontSize=11;entryX=0.5;entryY=0;entryDx=0;entryDy=0;exitX=0.5;exitY=1;exitDx=0;exitDy=0;fillColor=#fff2cc;strokeColor=#d6b656;gradientColor=#ffd966;" edge="1" parent="IBrZbxC6G9MoHd_QeGUf-46" source="IBrZbxC6G9MoHd_QeGUf-47" target="IBrZbxC6G9MoHd_QeGUf-47">
          <mxGeometry width="50" height="50" relative="1" as="geometry">
            <mxPoint x="-40" y="81" as="sourcePoint" />
            <mxPoint y="36" as="targetPoint" />
          </mxGeometry>
        </mxCell>
        <mxCell id="IBrZbxC6G9MoHd_QeGUf-49" value="&lt;p style=&quot;line-height: 0%;&quot;&gt;&lt;font face=&quot;Comic Sans MS&quot;&gt;&lt;span style=&quot;font-size: 11px;&quot;&gt;...&lt;/span&gt;&lt;/font&gt;&lt;/p&gt;" style="text;strokeColor=none;align=center;fillColor=none;html=1;verticalAlign=middle;whiteSpace=wrap;rounded=0;dashed=1;" vertex="1" parent="1">
          <mxGeometry x="406" y="606" width="30" height="30" as="geometry" />
        </mxCell>
        <mxCell id="IBrZbxC6G9MoHd_QeGUf-53" value="" style="group;fillColor=#d5e8d4;strokeColor=#82b366;" vertex="1" connectable="0" parent="1">
          <mxGeometry x="437.5" y="614" width="32" height="18" as="geometry" />
        </mxCell>
        <mxCell id="IBrZbxC6G9MoHd_QeGUf-54" value="" style="rounded=0;whiteSpace=wrap;html=1;fontFamily=Comic Sans MS;fontSize=11;fillColor=#fff2cc;strokeColor=#d6b656;gradientColor=#ffd966;" vertex="1" parent="IBrZbxC6G9MoHd_QeGUf-53">
          <mxGeometry width="32" height="18" as="geometry" />
        </mxCell>
        <mxCell id="IBrZbxC6G9MoHd_QeGUf-55" value="" style="endArrow=none;html=1;rounded=0;fontFamily=Comic Sans MS;fontSize=11;entryX=0.5;entryY=0;entryDx=0;entryDy=0;exitX=0.5;exitY=1;exitDx=0;exitDy=0;fillColor=#fff2cc;strokeColor=#d6b656;gradientColor=#ffd966;" edge="1" parent="IBrZbxC6G9MoHd_QeGUf-53" source="IBrZbxC6G9MoHd_QeGUf-54" target="IBrZbxC6G9MoHd_QeGUf-54">
          <mxGeometry width="50" height="50" relative="1" as="geometry">
            <mxPoint x="-40" y="81" as="sourcePoint" />
            <mxPoint y="36" as="targetPoint" />
          </mxGeometry>
        </mxCell>
        <mxCell id="IBrZbxC6G9MoHd_QeGUf-56" value="" style="group;fillColor=#d5e8d4;strokeColor=#82b366;" vertex="1" connectable="0" parent="1">
          <mxGeometry x="478" y="614" width="32" height="18" as="geometry" />
        </mxCell>
        <mxCell id="IBrZbxC6G9MoHd_QeGUf-57" value="" style="rounded=0;whiteSpace=wrap;html=1;fontFamily=Comic Sans MS;fontSize=11;fillColor=#fff2cc;strokeColor=#d6b656;gradientColor=#ffd966;" vertex="1" parent="IBrZbxC6G9MoHd_QeGUf-56">
          <mxGeometry width="32" height="18" as="geometry" />
        </mxCell>
        <mxCell id="IBrZbxC6G9MoHd_QeGUf-58" value="" style="endArrow=none;html=1;rounded=0;fontFamily=Comic Sans MS;fontSize=11;entryX=0.5;entryY=0;entryDx=0;entryDy=0;exitX=0.5;exitY=1;exitDx=0;exitDy=0;fillColor=#fff2cc;strokeColor=#d6b656;gradientColor=#ffd966;" edge="1" parent="IBrZbxC6G9MoHd_QeGUf-56" source="IBrZbxC6G9MoHd_QeGUf-57" target="IBrZbxC6G9MoHd_QeGUf-57">
          <mxGeometry width="50" height="50" relative="1" as="geometry">
            <mxPoint x="-40" y="81" as="sourcePoint" />
            <mxPoint y="36" as="targetPoint" />
          </mxGeometry>
        </mxCell>
        <mxCell id="IBrZbxC6G9MoHd_QeGUf-59" value="" style="group;fillColor=#d5e8d4;strokeColor=#82b366;" vertex="1" connectable="0" parent="1">
          <mxGeometry x="517" y="614" width="32" height="18" as="geometry" />
        </mxCell>
        <mxCell id="IBrZbxC6G9MoHd_QeGUf-60" value="" style="rounded=0;whiteSpace=wrap;html=1;fontFamily=Comic Sans MS;fontSize=11;fillColor=#fff2cc;strokeColor=#d6b656;gradientColor=#ffd966;" vertex="1" parent="IBrZbxC6G9MoHd_QeGUf-59">
          <mxGeometry width="32" height="18" as="geometry" />
        </mxCell>
        <mxCell id="IBrZbxC6G9MoHd_QeGUf-61" value="" style="endArrow=none;html=1;rounded=0;fontFamily=Comic Sans MS;fontSize=11;entryX=0.5;entryY=0;entryDx=0;entryDy=0;exitX=0.5;exitY=1;exitDx=0;exitDy=0;fillColor=#fff2cc;strokeColor=#d6b656;gradientColor=#ffd966;" edge="1" parent="IBrZbxC6G9MoHd_QeGUf-59" source="IBrZbxC6G9MoHd_QeGUf-60" target="IBrZbxC6G9MoHd_QeGUf-60">
          <mxGeometry width="50" height="50" relative="1" as="geometry">
            <mxPoint x="-40" y="81" as="sourcePoint" />
            <mxPoint y="36" as="targetPoint" />
          </mxGeometry>
        </mxCell>
        <mxCell id="IBrZbxC6G9MoHd_QeGUf-78" value="" style="rounded=1;whiteSpace=wrap;html=1;dashed=1;direction=south;container=0;" vertex="1" parent="1">
          <mxGeometry x="292" y="644" width="110" height="34" as="geometry" />
        </mxCell>
        <mxCell id="IBrZbxC6G9MoHd_QeGUf-79" value="" style="ellipse;whiteSpace=wrap;html=1;aspect=fixed;fillColor=#ffe6cc;strokeColor=#d79b00;container=0;" vertex="1" parent="1">
          <mxGeometry x="300" y="650.5" width="20" height="20" as="geometry" />
        </mxCell>
        <mxCell id="IBrZbxC6G9MoHd_QeGUf-80" value="" style="triangle;whiteSpace=wrap;html=1;fontFamily=Comic Sans MS;fontSize=14;direction=north;fillColor=#fff2cc;strokeColor=#d6b656;container=0;" vertex="1" parent="1">
          <mxGeometry x="337.5" y="649.5" width="20" height="20" as="geometry" />
        </mxCell>
        <mxCell id="IBrZbxC6G9MoHd_QeGUf-81" value="" style="rhombus;whiteSpace=wrap;html=1;fontFamily=Comic Sans MS;fontSize=14;fillColor=#f8cecc;strokeColor=#b85450;container=0;" vertex="1" parent="1">
          <mxGeometry x="376" y="649.5" width="20" height="20" as="geometry" />
        </mxCell>
        <mxCell id="IBrZbxC6G9MoHd_QeGUf-82" value="" style="rounded=1;whiteSpace=wrap;html=1;dashed=1;direction=south;container=0;" vertex="1" parent="1">
          <mxGeometry x="437" y="643.5" width="110" height="34" as="geometry" />
        </mxCell>
        <mxCell id="IBrZbxC6G9MoHd_QeGUf-83" value="" style="ellipse;whiteSpace=wrap;html=1;aspect=fixed;fillColor=#ffe6cc;strokeColor=#d79b00;container=0;" vertex="1" parent="1">
          <mxGeometry x="445" y="650" width="20" height="20" as="geometry" />
        </mxCell>
        <mxCell id="IBrZbxC6G9MoHd_QeGUf-84" value="" style="triangle;whiteSpace=wrap;html=1;fontFamily=Comic Sans MS;fontSize=14;direction=north;fillColor=#fff2cc;strokeColor=#d6b656;container=0;" vertex="1" parent="1">
          <mxGeometry x="482.5" y="649" width="20" height="20" as="geometry" />
        </mxCell>
        <mxCell id="IBrZbxC6G9MoHd_QeGUf-85" value="" style="rhombus;whiteSpace=wrap;html=1;fontFamily=Comic Sans MS;fontSize=14;fillColor=#f8cecc;strokeColor=#b85450;container=0;" vertex="1" parent="1">
          <mxGeometry x="521" y="649" width="20" height="20" as="geometry" />
        </mxCell>
        <mxCell id="IBrZbxC6G9MoHd_QeGUf-87" value="" style="endArrow=classic;html=1;rounded=0;fontFamily=Comic Sans MS;fontSize=11;" edge="1" parent="1">
          <mxGeometry width="50" height="50" relative="1" as="geometry">
            <mxPoint x="228" y="317" as="sourcePoint" />
            <mxPoint x="228" y="337" as="targetPoint" />
            <Array as="points" />
          </mxGeometry>
        </mxCell>
        <mxCell id="IBrZbxC6G9MoHd_QeGUf-88" value="" style="endArrow=classic;html=1;rounded=0;fontFamily=Comic Sans MS;fontSize=11;" edge="1" parent="1">
          <mxGeometry width="50" height="50" relative="1" as="geometry">
            <mxPoint x="349" y="317" as="sourcePoint" />
            <mxPoint x="349" y="337" as="targetPoint" />
            <Array as="points" />
          </mxGeometry>
        </mxCell>
        <mxCell id="IBrZbxC6G9MoHd_QeGUf-91" value="" style="endArrow=classic;html=1;rounded=0;fontFamily=Comic Sans MS;fontSize=11;" edge="1" parent="1">
          <mxGeometry width="50" height="50" relative="1" as="geometry">
            <mxPoint x="349" y="571" as="sourcePoint" />
            <mxPoint x="349" y="556" as="targetPoint" />
            <Array as="points" />
          </mxGeometry>
        </mxCell>
        <mxCell id="IBrZbxC6G9MoHd_QeGUf-98" value="" style="endArrow=classic;html=1;rounded=0;fontFamily=Comic Sans MS;fontSize=11;" edge="1" parent="1">
          <mxGeometry width="50" height="50" relative="1" as="geometry">
            <mxPoint x="491" y="316" as="sourcePoint" />
            <mxPoint x="491" y="336" as="targetPoint" />
            <Array as="points" />
          </mxGeometry>
        </mxCell>
        <mxCell id="IBrZbxC6G9MoHd_QeGUf-99" value="" style="group;fillColor=#f5f5f5;strokeColor=#666666;fontColor=#333333;" vertex="1" connectable="0" parent="1">
          <mxGeometry x="468" y="288" width="48" height="25" as="geometry" />
        </mxCell>
        <mxCell id="IBrZbxC6G9MoHd_QeGUf-100" value="" style="rounded=0;whiteSpace=wrap;html=1;fontFamily=Comic Sans MS;fontSize=11;fillColor=#f5f5f5;strokeColor=#666666;fontColor=#333333;" vertex="1" parent="IBrZbxC6G9MoHd_QeGUf-99">
          <mxGeometry width="48" height="25" as="geometry" />
        </mxCell>
        <mxCell id="IBrZbxC6G9MoHd_QeGUf-101" value="" style="endArrow=none;html=1;rounded=0;fontFamily=Comic Sans MS;fontSize=11;entryX=0.5;entryY=0;entryDx=0;entryDy=0;exitX=0.5;exitY=1;exitDx=0;exitDy=0;fillColor=#f5f5f5;strokeColor=#666666;" edge="1" parent="IBrZbxC6G9MoHd_QeGUf-99" source="IBrZbxC6G9MoHd_QeGUf-100" target="IBrZbxC6G9MoHd_QeGUf-100">
          <mxGeometry width="50" height="50" relative="1" as="geometry">
            <mxPoint x="-60" y="112.5" as="sourcePoint" />
            <mxPoint y="50" as="targetPoint" />
          </mxGeometry>
        </mxCell>
        <mxCell id="IBrZbxC6G9MoHd_QeGUf-102" value="" style="group;fillColor=#f5f5f5;strokeColor=#666666;fontColor=#333333;" vertex="1" connectable="0" parent="1">
          <mxGeometry x="325" y="289" width="48" height="25" as="geometry" />
        </mxCell>
        <mxCell id="IBrZbxC6G9MoHd_QeGUf-103" value="" style="rounded=0;whiteSpace=wrap;html=1;fontFamily=Comic Sans MS;fontSize=11;fillColor=#f5f5f5;strokeColor=#666666;fontColor=#333333;" vertex="1" parent="IBrZbxC6G9MoHd_QeGUf-102">
          <mxGeometry width="48" height="25" as="geometry" />
        </mxCell>
        <mxCell id="IBrZbxC6G9MoHd_QeGUf-104" value="" style="endArrow=none;html=1;rounded=0;fontFamily=Comic Sans MS;fontSize=11;entryX=0.5;entryY=0;entryDx=0;entryDy=0;exitX=0.5;exitY=1;exitDx=0;exitDy=0;fillColor=#f5f5f5;strokeColor=#666666;" edge="1" parent="IBrZbxC6G9MoHd_QeGUf-102" source="IBrZbxC6G9MoHd_QeGUf-103" target="IBrZbxC6G9MoHd_QeGUf-103">
          <mxGeometry width="50" height="50" relative="1" as="geometry">
            <mxPoint x="-60" y="112.5" as="sourcePoint" />
            <mxPoint y="50" as="targetPoint" />
          </mxGeometry>
        </mxCell>
        <mxCell id="IBrZbxC6G9MoHd_QeGUf-105" value="" style="group;fillColor=#f5f5f5;strokeColor=#666666;fontColor=#333333;" vertex="1" connectable="0" parent="1">
          <mxGeometry x="204" y="289" width="48" height="25" as="geometry" />
        </mxCell>
        <mxCell id="IBrZbxC6G9MoHd_QeGUf-106" value="" style="rounded=0;whiteSpace=wrap;html=1;fontFamily=Comic Sans MS;fontSize=11;fillColor=#f5f5f5;strokeColor=#666666;fontColor=#333333;" vertex="1" parent="IBrZbxC6G9MoHd_QeGUf-105">
          <mxGeometry width="48" height="25" as="geometry" />
        </mxCell>
        <mxCell id="IBrZbxC6G9MoHd_QeGUf-107" value="" style="endArrow=none;html=1;rounded=0;fontFamily=Comic Sans MS;fontSize=11;entryX=0.5;entryY=0;entryDx=0;entryDy=0;exitX=0.5;exitY=1;exitDx=0;exitDy=0;fillColor=#f5f5f5;strokeColor=#666666;" edge="1" parent="IBrZbxC6G9MoHd_QeGUf-105" source="IBrZbxC6G9MoHd_QeGUf-106" target="IBrZbxC6G9MoHd_QeGUf-106">
          <mxGeometry width="50" height="50" relative="1" as="geometry">
            <mxPoint x="-60" y="112.5" as="sourcePoint" />
            <mxPoint y="50" as="targetPoint" />
          </mxGeometry>
        </mxCell>
        <mxCell id="IBrZbxC6G9MoHd_QeGUf-108" value="&lt;font style=&quot;font-size: 18px;&quot;&gt;Autoregressive Intention Decoder&lt;/font&gt;" style="rounded=0;whiteSpace=wrap;html=1;fillColor=#b0e3e6;strokeColor=#0e8088;" vertex="1" parent="1">
          <mxGeometry x="30" y="114" width="530" height="44" as="geometry" />
        </mxCell>
        <mxCell id="IBrZbxC6G9MoHd_QeGUf-109" value="" style="rounded=1;whiteSpace=wrap;html=1;dashed=1;direction=south;container=0;" vertex="1" parent="1">
          <mxGeometry x="81" y="196" width="110" height="34" as="geometry" />
        </mxCell>
        <mxCell id="IBrZbxC6G9MoHd_QeGUf-110" value="" style="ellipse;whiteSpace=wrap;html=1;aspect=fixed;fillColor=#ffe6cc;strokeColor=#d79b00;container=0;" vertex="1" parent="1">
          <mxGeometry x="89" y="202.5" width="20" height="20" as="geometry" />
        </mxCell>
        <mxCell id="IBrZbxC6G9MoHd_QeGUf-111" value="" style="triangle;whiteSpace=wrap;html=1;fontFamily=Comic Sans MS;fontSize=14;direction=north;fillColor=#fff2cc;strokeColor=#d6b656;container=0;" vertex="1" parent="1">
          <mxGeometry x="126.5" y="201.5" width="20" height="20" as="geometry" />
        </mxCell>
        <mxCell id="IBrZbxC6G9MoHd_QeGUf-112" value="" style="rhombus;whiteSpace=wrap;html=1;fontFamily=Comic Sans MS;fontSize=14;fillColor=#f8cecc;strokeColor=#b85450;container=0;" vertex="1" parent="1">
          <mxGeometry x="165" y="201.5" width="20" height="20" as="geometry" />
        </mxCell>
        <mxCell id="IBrZbxC6G9MoHd_QeGUf-113" value="&lt;p style=&quot;line-height: 0%;&quot;&gt;&lt;font face=&quot;Comic Sans MS&quot;&gt;&lt;span style=&quot;font-size: 11px;&quot;&gt;...&lt;/span&gt;&lt;/font&gt;&lt;/p&gt;" style="text;strokeColor=none;align=center;fillColor=none;html=1;verticalAlign=middle;whiteSpace=wrap;rounded=0;dashed=1;" vertex="1" parent="1">
          <mxGeometry x="316" y="191.5" width="30" height="30" as="geometry" />
        </mxCell>
        <mxCell id="IBrZbxC6G9MoHd_QeGUf-114" value="" style="rounded=1;whiteSpace=wrap;html=1;dashed=1;direction=south;container=0;" vertex="1" parent="1">
          <mxGeometry x="201" y="196" width="110" height="34" as="geometry" />
        </mxCell>
        <mxCell id="IBrZbxC6G9MoHd_QeGUf-115" value="" style="ellipse;whiteSpace=wrap;html=1;aspect=fixed;fillColor=#ffe6cc;strokeColor=#d79b00;container=0;" vertex="1" parent="1">
          <mxGeometry x="209" y="202.5" width="20" height="20" as="geometry" />
        </mxCell>
        <mxCell id="IBrZbxC6G9MoHd_QeGUf-116" value="" style="triangle;whiteSpace=wrap;html=1;fontFamily=Comic Sans MS;fontSize=14;direction=north;fillColor=#fff2cc;strokeColor=#d6b656;container=0;" vertex="1" parent="1">
          <mxGeometry x="246.5" y="201.5" width="20" height="20" as="geometry" />
        </mxCell>
        <mxCell id="IBrZbxC6G9MoHd_QeGUf-117" value="" style="rhombus;whiteSpace=wrap;html=1;fontFamily=Comic Sans MS;fontSize=14;fillColor=#f8cecc;strokeColor=#b85450;container=0;" vertex="1" parent="1">
          <mxGeometry x="285" y="201.5" width="20" height="20" as="geometry" />
        </mxCell>
        <mxCell id="IBrZbxC6G9MoHd_QeGUf-118" value="" style="rounded=1;whiteSpace=wrap;html=1;dashed=1;direction=south;container=0;" vertex="1" parent="1">
          <mxGeometry x="346" y="195.5" width="110" height="34" as="geometry" />
        </mxCell>
        <mxCell id="IBrZbxC6G9MoHd_QeGUf-119" value="" style="ellipse;whiteSpace=wrap;html=1;aspect=fixed;fillColor=#ffe6cc;strokeColor=#d79b00;container=0;" vertex="1" parent="1">
          <mxGeometry x="354" y="202" width="20" height="20" as="geometry" />
        </mxCell>
        <mxCell id="IBrZbxC6G9MoHd_QeGUf-120" value="" style="triangle;whiteSpace=wrap;html=1;fontFamily=Comic Sans MS;fontSize=14;direction=north;fillColor=#fff2cc;strokeColor=#d6b656;container=0;" vertex="1" parent="1">
          <mxGeometry x="391.5" y="201" width="20" height="20" as="geometry" />
        </mxCell>
        <mxCell id="IBrZbxC6G9MoHd_QeGUf-121" value="" style="rhombus;whiteSpace=wrap;html=1;fontFamily=Comic Sans MS;fontSize=14;fillColor=#f8cecc;strokeColor=#b85450;container=0;" vertex="1" parent="1">
          <mxGeometry x="430" y="201" width="20" height="20" as="geometry" />
        </mxCell>
        <mxCell id="IBrZbxC6G9MoHd_QeGUf-122" value="&amp;lt;s&amp;gt;" style="text;strokeColor=none;align=center;fillColor=none;html=1;verticalAlign=middle;whiteSpace=wrap;rounded=0;fontSize=14;fontFamily=Lucida Console;" vertex="1" parent="1">
          <mxGeometry x="38" y="194" width="35" height="40" as="geometry" />
        </mxCell>
        <mxCell id="IBrZbxC6G9MoHd_QeGUf-123" value="" style="rounded=1;whiteSpace=wrap;html=1;dashed=1;direction=south;container=0;" vertex="1" parent="1">
          <mxGeometry x="43" y="50.5" width="110" height="34" as="geometry" />
        </mxCell>
        <mxCell id="IBrZbxC6G9MoHd_QeGUf-124" value="" style="ellipse;whiteSpace=wrap;html=1;aspect=fixed;fillColor=#ffe6cc;strokeColor=#d79b00;container=0;" vertex="1" parent="1">
          <mxGeometry x="51" y="57" width="20" height="20" as="geometry" />
        </mxCell>
        <mxCell id="IBrZbxC6G9MoHd_QeGUf-125" value="" style="triangle;whiteSpace=wrap;html=1;fontFamily=Comic Sans MS;fontSize=14;direction=north;fillColor=#fff2cc;strokeColor=#d6b656;container=0;" vertex="1" parent="1">
          <mxGeometry x="88.5" y="56" width="20" height="20" as="geometry" />
        </mxCell>
        <mxCell id="IBrZbxC6G9MoHd_QeGUf-126" value="" style="rhombus;whiteSpace=wrap;html=1;fontFamily=Comic Sans MS;fontSize=14;fillColor=#f8cecc;strokeColor=#b85450;container=0;" vertex="1" parent="1">
          <mxGeometry x="127" y="56" width="20" height="20" as="geometry" />
        </mxCell>
        <mxCell id="IBrZbxC6G9MoHd_QeGUf-127" value="&lt;p style=&quot;line-height: 0%;&quot;&gt;&lt;font face=&quot;Comic Sans MS&quot;&gt;&lt;span style=&quot;font-size: 11px;&quot;&gt;...&lt;/span&gt;&lt;/font&gt;&lt;/p&gt;" style="text;strokeColor=none;align=center;fillColor=none;html=1;verticalAlign=middle;whiteSpace=wrap;rounded=0;dashed=1;" vertex="1" parent="1">
          <mxGeometry x="278" y="46" width="30" height="30" as="geometry" />
        </mxCell>
        <mxCell id="IBrZbxC6G9MoHd_QeGUf-128" value="" style="rounded=1;whiteSpace=wrap;html=1;dashed=1;direction=south;container=0;" vertex="1" parent="1">
          <mxGeometry x="163" y="50.5" width="110" height="34" as="geometry" />
        </mxCell>
        <mxCell id="IBrZbxC6G9MoHd_QeGUf-129" value="" style="ellipse;whiteSpace=wrap;html=1;aspect=fixed;fillColor=#ffe6cc;strokeColor=#d79b00;container=0;" vertex="1" parent="1">
          <mxGeometry x="171" y="57" width="20" height="20" as="geometry" />
        </mxCell>
        <mxCell id="IBrZbxC6G9MoHd_QeGUf-130" value="" style="triangle;whiteSpace=wrap;html=1;fontFamily=Comic Sans MS;fontSize=14;direction=north;fillColor=#fff2cc;strokeColor=#d6b656;container=0;" vertex="1" parent="1">
          <mxGeometry x="208.5" y="56" width="20" height="20" as="geometry" />
        </mxCell>
        <mxCell id="IBrZbxC6G9MoHd_QeGUf-131" value="" style="rhombus;whiteSpace=wrap;html=1;fontFamily=Comic Sans MS;fontSize=14;fillColor=#f8cecc;strokeColor=#b85450;container=0;" vertex="1" parent="1">
          <mxGeometry x="247" y="56" width="20" height="20" as="geometry" />
        </mxCell>
        <mxCell id="IBrZbxC6G9MoHd_QeGUf-132" value="" style="rounded=1;whiteSpace=wrap;html=1;dashed=1;direction=south;container=0;" vertex="1" parent="1">
          <mxGeometry x="308" y="50" width="110" height="34" as="geometry" />
        </mxCell>
        <mxCell id="IBrZbxC6G9MoHd_QeGUf-133" value="" style="ellipse;whiteSpace=wrap;html=1;aspect=fixed;fillColor=#ffe6cc;strokeColor=#d79b00;container=0;" vertex="1" parent="1">
          <mxGeometry x="316" y="56.5" width="20" height="20" as="geometry" />
        </mxCell>
        <mxCell id="IBrZbxC6G9MoHd_QeGUf-134" value="" style="triangle;whiteSpace=wrap;html=1;fontFamily=Comic Sans MS;fontSize=14;direction=north;fillColor=#fff2cc;strokeColor=#d6b656;container=0;" vertex="1" parent="1">
          <mxGeometry x="353.5" y="55.5" width="20" height="20" as="geometry" />
        </mxCell>
        <mxCell id="IBrZbxC6G9MoHd_QeGUf-135" value="" style="rhombus;whiteSpace=wrap;html=1;fontFamily=Comic Sans MS;fontSize=14;fillColor=#f8cecc;strokeColor=#b85450;container=0;" vertex="1" parent="1">
          <mxGeometry x="392" y="55.5" width="20" height="20" as="geometry" />
        </mxCell>
        <mxCell id="IBrZbxC6G9MoHd_QeGUf-136" value="" style="endArrow=classic;html=1;rounded=0;fontFamily=Comic Sans MS;fontSize=11;" edge="1" parent="1">
          <mxGeometry width="50" height="50" relative="1" as="geometry">
            <mxPoint x="55.5" y="189" as="sourcePoint" />
            <mxPoint x="55.5" y="166" as="targetPoint" />
            <Array as="points" />
          </mxGeometry>
        </mxCell>
        <mxCell id="IBrZbxC6G9MoHd_QeGUf-137" value="" style="endArrow=classic;html=1;rounded=0;fontFamily=Comic Sans MS;fontSize=11;" edge="1" parent="1">
          <mxGeometry width="50" height="50" relative="1" as="geometry">
            <mxPoint x="97.5" y="189" as="sourcePoint" />
            <mxPoint x="97.5" y="166" as="targetPoint" />
            <Array as="points" />
          </mxGeometry>
        </mxCell>
        <mxCell id="IBrZbxC6G9MoHd_QeGUf-138" value="" style="endArrow=classic;html=1;rounded=0;fontFamily=Comic Sans MS;fontSize=11;" edge="1" parent="1">
          <mxGeometry width="50" height="50" relative="1" as="geometry">
            <mxPoint x="135.5" y="189" as="sourcePoint" />
            <mxPoint x="135.5" y="166" as="targetPoint" />
            <Array as="points" />
          </mxGeometry>
        </mxCell>
        <mxCell id="IBrZbxC6G9MoHd_QeGUf-139" value="" style="endArrow=classic;html=1;rounded=0;fontFamily=Comic Sans MS;fontSize=11;" edge="1" parent="1">
          <mxGeometry width="50" height="50" relative="1" as="geometry">
            <mxPoint x="176.5" y="189" as="sourcePoint" />
            <mxPoint x="176.5" y="166" as="targetPoint" />
            <Array as="points" />
          </mxGeometry>
        </mxCell>
        <mxCell id="IBrZbxC6G9MoHd_QeGUf-140" value="" style="endArrow=classic;html=1;rounded=0;fontFamily=Comic Sans MS;fontSize=11;" edge="1" parent="1">
          <mxGeometry width="50" height="50" relative="1" as="geometry">
            <mxPoint x="217.5" y="189" as="sourcePoint" />
            <mxPoint x="217.5" y="166" as="targetPoint" />
            <Array as="points" />
          </mxGeometry>
        </mxCell>
        <mxCell id="IBrZbxC6G9MoHd_QeGUf-141" value="" style="endArrow=classic;html=1;rounded=0;fontFamily=Comic Sans MS;fontSize=11;" edge="1" parent="1">
          <mxGeometry width="50" height="50" relative="1" as="geometry">
            <mxPoint x="254.5" y="189" as="sourcePoint" />
            <mxPoint x="254.5" y="166" as="targetPoint" />
            <Array as="points" />
          </mxGeometry>
        </mxCell>
        <mxCell id="IBrZbxC6G9MoHd_QeGUf-142" value="" style="endArrow=classic;html=1;rounded=0;fontFamily=Comic Sans MS;fontSize=11;" edge="1" parent="1">
          <mxGeometry width="50" height="50" relative="1" as="geometry">
            <mxPoint x="294.5" y="189" as="sourcePoint" />
            <mxPoint x="294.5" y="166" as="targetPoint" />
            <Array as="points" />
          </mxGeometry>
        </mxCell>
        <mxCell id="IBrZbxC6G9MoHd_QeGUf-143" value="" style="endArrow=classic;html=1;rounded=0;fontFamily=Comic Sans MS;fontSize=11;" edge="1" parent="1">
          <mxGeometry width="50" height="50" relative="1" as="geometry">
            <mxPoint x="363.5" y="189" as="sourcePoint" />
            <mxPoint x="363.5" y="166" as="targetPoint" />
            <Array as="points" />
          </mxGeometry>
        </mxCell>
        <mxCell id="IBrZbxC6G9MoHd_QeGUf-144" value="" style="endArrow=classic;html=1;rounded=0;fontFamily=Comic Sans MS;fontSize=11;" edge="1" parent="1">
          <mxGeometry width="50" height="50" relative="1" as="geometry">
            <mxPoint x="401.5" y="189" as="sourcePoint" />
            <mxPoint x="401.5" y="166" as="targetPoint" />
            <Array as="points" />
          </mxGeometry>
        </mxCell>
        <mxCell id="IBrZbxC6G9MoHd_QeGUf-145" value="" style="edgeStyle=elbowEdgeStyle;elbow=horizontal;endArrow=classic;html=1;curved=0;rounded=0;endSize=8;startSize=8;fontFamily=Lucida Console;fontSize=12;entryX=1;entryY=0.5;entryDx=0;entryDy=0;exitX=0.987;exitY=0.366;exitDx=0;exitDy=0;exitPerimeter=0;" edge="1" parent="1" source="IBrZbxC6G9MoHd_QeGUf-286" target="IBrZbxC6G9MoHd_QeGUf-108">
          <mxGeometry width="50" height="50" relative="1" as="geometry">
            <mxPoint x="550" y="490" as="sourcePoint" />
            <mxPoint x="547" y="161" as="targetPoint" />
            <Array as="points">
              <mxPoint x="590" y="298" />
            </Array>
          </mxGeometry>
        </mxCell>
        <mxCell id="IBrZbxC6G9MoHd_QeGUf-146" value="" style="endArrow=classic;html=1;rounded=0;fontFamily=Comic Sans MS;fontSize=11;" edge="1" parent="1">
          <mxGeometry width="50" height="50" relative="1" as="geometry">
            <mxPoint x="55.5" y="111" as="sourcePoint" />
            <mxPoint x="55.5" y="88" as="targetPoint" />
            <Array as="points" />
          </mxGeometry>
        </mxCell>
        <mxCell id="IBrZbxC6G9MoHd_QeGUf-147" value="" style="endArrow=classic;html=1;rounded=0;fontFamily=Comic Sans MS;fontSize=11;" edge="1" parent="1">
          <mxGeometry width="50" height="50" relative="1" as="geometry">
            <mxPoint x="97.5" y="111" as="sourcePoint" />
            <mxPoint x="97.5" y="88" as="targetPoint" />
            <Array as="points" />
          </mxGeometry>
        </mxCell>
        <mxCell id="IBrZbxC6G9MoHd_QeGUf-148" value="" style="endArrow=classic;html=1;rounded=0;fontFamily=Comic Sans MS;fontSize=11;" edge="1" parent="1">
          <mxGeometry width="50" height="50" relative="1" as="geometry">
            <mxPoint x="135.5" y="111" as="sourcePoint" />
            <mxPoint x="135.5" y="88" as="targetPoint" />
            <Array as="points" />
          </mxGeometry>
        </mxCell>
        <mxCell id="IBrZbxC6G9MoHd_QeGUf-149" value="" style="endArrow=classic;html=1;rounded=0;fontFamily=Comic Sans MS;fontSize=11;" edge="1" parent="1">
          <mxGeometry width="50" height="50" relative="1" as="geometry">
            <mxPoint x="176.5" y="111" as="sourcePoint" />
            <mxPoint x="176.5" y="88" as="targetPoint" />
            <Array as="points" />
          </mxGeometry>
        </mxCell>
        <mxCell id="IBrZbxC6G9MoHd_QeGUf-150" value="" style="endArrow=classic;html=1;rounded=0;fontFamily=Comic Sans MS;fontSize=11;" edge="1" parent="1">
          <mxGeometry width="50" height="50" relative="1" as="geometry">
            <mxPoint x="217.5" y="111" as="sourcePoint" />
            <mxPoint x="217.5" y="88" as="targetPoint" />
            <Array as="points" />
          </mxGeometry>
        </mxCell>
        <mxCell id="IBrZbxC6G9MoHd_QeGUf-151" value="" style="endArrow=classic;html=1;rounded=0;fontFamily=Comic Sans MS;fontSize=11;" edge="1" parent="1">
          <mxGeometry width="50" height="50" relative="1" as="geometry">
            <mxPoint x="254.5" y="111" as="sourcePoint" />
            <mxPoint x="254.5" y="88" as="targetPoint" />
            <Array as="points" />
          </mxGeometry>
        </mxCell>
        <mxCell id="IBrZbxC6G9MoHd_QeGUf-152" value="" style="endArrow=classic;html=1;rounded=0;fontFamily=Comic Sans MS;fontSize=11;" edge="1" parent="1">
          <mxGeometry width="50" height="50" relative="1" as="geometry">
            <mxPoint x="326.5" y="111" as="sourcePoint" />
            <mxPoint x="326.5" y="88" as="targetPoint" />
            <Array as="points" />
          </mxGeometry>
        </mxCell>
        <mxCell id="IBrZbxC6G9MoHd_QeGUf-153" value="" style="endArrow=classic;html=1;rounded=0;fontFamily=Comic Sans MS;fontSize=11;" edge="1" parent="1">
          <mxGeometry width="50" height="50" relative="1" as="geometry">
            <mxPoint x="364.5" y="111" as="sourcePoint" />
            <mxPoint x="364.5" y="88" as="targetPoint" />
            <Array as="points" />
          </mxGeometry>
        </mxCell>
        <mxCell id="IBrZbxC6G9MoHd_QeGUf-154" value="" style="endArrow=classic;html=1;rounded=0;fontFamily=Comic Sans MS;fontSize=11;" edge="1" parent="1">
          <mxGeometry width="50" height="50" relative="1" as="geometry">
            <mxPoint x="402.5" y="111" as="sourcePoint" />
            <mxPoint x="402.5" y="88" as="targetPoint" />
            <Array as="points" />
          </mxGeometry>
        </mxCell>
        <mxCell id="IBrZbxC6G9MoHd_QeGUf-155" value="" style="endArrow=classic;html=1;rounded=0;fontFamily=Comic Sans MS;fontSize=11;sketch=1;curveFitting=1;jiggle=2;opacity=40;" edge="1" parent="1">
          <mxGeometry width="50" height="50" relative="1" as="geometry">
            <mxPoint x="440.5" y="111" as="sourcePoint" />
            <mxPoint x="440.5" y="88" as="targetPoint" />
            <Array as="points" />
          </mxGeometry>
        </mxCell>
        <mxCell id="IBrZbxC6G9MoHd_QeGUf-156" value="&lt;font face=&quot;Comic Sans MS&quot;&gt;&lt;b&gt;?&lt;/b&gt;&lt;/font&gt;" style="ellipse;whiteSpace=wrap;html=1;aspect=fixed;fillColor=#dae8fc;strokeColor=#6c8ebf;container=0;sketch=1;curveFitting=1;jiggle=2;" vertex="1" parent="1">
          <mxGeometry x="430.5" y="56" width="20" height="20" as="geometry" />
        </mxCell>
        <mxCell id="IBrZbxC6G9MoHd_QeGUf-157" value="&lt;font style=&quot;font-size: 12px;&quot;&gt;&lt;b&gt;?&lt;/b&gt;&lt;/font&gt;" style="rhombus;whiteSpace=wrap;html=1;fontFamily=Comic Sans MS;fontSize=14;fillColor=#ffe6cc;strokeColor=#d79b00;container=0;sketch=1;curveFitting=1;jiggle=2;" vertex="1" parent="1">
          <mxGeometry x="506.5" y="56" width="20" height="20" as="geometry" />
        </mxCell>
        <mxCell id="IBrZbxC6G9MoHd_QeGUf-158" value="&lt;font face=&quot;Comic Sans MS&quot;&gt;&lt;b&gt;?&lt;/b&gt;&lt;/font&gt;" style="ellipse;whiteSpace=wrap;html=1;aspect=fixed;fillColor=#dae8fc;strokeColor=#6c8ebf;container=0;sketch=1;curveFitting=1;jiggle=2;" vertex="1" parent="1">
          <mxGeometry x="469" y="201.5" width="20" height="20" as="geometry" />
        </mxCell>
        <mxCell id="IBrZbxC6G9MoHd_QeGUf-159" value="&lt;font style=&quot;font-size: 12px;&quot;&gt;&lt;b&gt;?&lt;/b&gt;&lt;/font&gt;" style="triangle;whiteSpace=wrap;html=1;fontFamily=Comic Sans MS;fontSize=14;direction=north;fillColor=#e6d0de;strokeColor=#996185;container=0;sketch=1;curveFitting=1;jiggle=2;gradientColor=#d5739d;" vertex="1" parent="1">
          <mxGeometry x="507.5" y="200.5" width="20" height="20" as="geometry" />
        </mxCell>
        <mxCell id="IBrZbxC6G9MoHd_QeGUf-160" value="&lt;font face=&quot;Helvetica&quot; style=&quot;font-size: 14px;&quot;&gt;&lt;b style=&quot;&quot;&gt;Encoding items and baskets&lt;/b&gt;&lt;/font&gt;" style="text;strokeColor=none;align=center;fillColor=none;html=1;verticalAlign=middle;whiteSpace=wrap;rounded=0;fontSize=12;fontFamily=Comic Sans MS;" vertex="1" parent="1">
          <mxGeometry x="7" y="259" width="204" height="30" as="geometry" />
        </mxCell>
        <mxCell id="IBrZbxC6G9MoHd_QeGUf-161" value="&lt;p style=&quot;line-height: 0%;&quot;&gt;&lt;font style=&quot;font-size: 14px;&quot; face=&quot;Comic Sans MS&quot;&gt;Basket representation&lt;/font&gt;&lt;/p&gt;" style="text;strokeColor=none;align=center;fillColor=none;html=1;verticalAlign=middle;whiteSpace=wrap;rounded=0;dashed=1;" vertex="1" parent="1">
          <mxGeometry x="11" y="288" width="159" height="30" as="geometry" />
        </mxCell>
        <mxCell id="IBrZbxC6G9MoHd_QeGUf-162" value="&lt;font face=&quot;Helvetica&quot; style=&quot;font-size: 14px;&quot;&gt;&lt;b style=&quot;&quot;&gt;Generating next basket of items&lt;/b&gt;&lt;/font&gt;" style="text;strokeColor=none;align=center;fillColor=none;html=1;verticalAlign=middle;whiteSpace=wrap;rounded=0;fontSize=12;fontFamily=Comic Sans MS;" vertex="1" parent="1">
          <mxGeometry x="4" y="4" width="226" height="30" as="geometry" />
        </mxCell>
        <mxCell id="IBrZbxC6G9MoHd_QeGUf-163" value="&lt;p style=&quot;line-height: 0%;&quot;&gt;&lt;font style=&quot;font-size: 14px;&quot;&gt;&lt;font face=&quot;Comic Sans MS&quot;&gt;Generating the recommended&amp;nbsp;&lt;/font&gt;&lt;font style=&quot;background-color: initial;&quot; face=&quot;Comic Sans MS&quot;&gt;items&amp;nbsp;&lt;/font&gt;&lt;/font&gt;&lt;/p&gt;&lt;p style=&quot;line-height: 0%;&quot;&gt;&lt;font size=&quot;3&quot;&gt;&lt;span style=&quot;background-color: initial; font-family: &amp;quot;Comic Sans MS&amp;quot;;&quot;&gt;one by one&amp;nbsp;&lt;/span&gt;&lt;span style=&quot;background-color: initial; font-family: &amp;quot;Comic Sans MS&amp;quot;;&quot;&gt;with a flexible size of &lt;/span&gt;&lt;i style=&quot;background-color: initial;&quot;&gt;K&lt;/i&gt;&lt;span style=&quot;background-color: initial; font-family: &amp;quot;Comic Sans MS&amp;quot;;&quot;&gt;.&lt;/span&gt;&lt;/font&gt;&lt;/p&gt;" style="text;strokeColor=none;align=center;fillColor=none;html=1;verticalAlign=middle;whiteSpace=wrap;rounded=0;dashed=1;" vertex="1" parent="1">
          <mxGeometry x="299" width="284" height="60" as="geometry" />
        </mxCell>
        <mxCell id="IBrZbxC6G9MoHd_QeGUf-164" value="&lt;font style=&quot;font-size: 12px;&quot;&gt;&lt;b&gt;?&lt;/b&gt;&lt;/font&gt;" style="triangle;whiteSpace=wrap;html=1;fontFamily=Comic Sans MS;fontSize=14;direction=north;fillColor=#e6d0de;strokeColor=#996185;container=0;sketch=1;curveFitting=1;jiggle=2;gradientColor=#d5739d;" vertex="1" parent="1">
          <mxGeometry x="469.5" y="55.5" width="20" height="20" as="geometry" />
        </mxCell>
        <mxCell id="IBrZbxC6G9MoHd_QeGUf-165" value="" style="endArrow=none;html=1;rounded=0;fontFamily=Helvetica;fontSize=18;exitX=1;exitY=0.5;exitDx=0;exitDy=0;" edge="1" parent="1">
          <mxGeometry width="50" height="50" relative="1" as="geometry">
            <mxPoint x="547" y="394" as="sourcePoint" />
            <mxPoint x="590" y="394" as="targetPoint" />
          </mxGeometry>
        </mxCell>
        <mxCell id="IBrZbxC6G9MoHd_QeGUf-166" value="" style="curved=1;endArrow=classic;html=1;rounded=0;fontFamily=Helvetica;shadow=0;opacity=40;sketch=1;curveFitting=1;jiggle=2;" edge="1" parent="1">
          <mxGeometry width="50" height="50" relative="1" as="geometry">
            <mxPoint x="450" y="78.5" as="sourcePoint" />
            <mxPoint x="470" y="196.5" as="targetPoint" />
            <Array as="points">
              <mxPoint x="460" y="78.5" />
              <mxPoint x="461" y="138.5" />
              <mxPoint x="460" y="178.5" />
            </Array>
          </mxGeometry>
        </mxCell>
        <mxCell id="IBrZbxC6G9MoHd_QeGUf-167" value="" style="curved=1;endArrow=classic;html=1;rounded=0;fontFamily=Helvetica;shadow=0;opacity=40;sketch=1;curveFitting=1;jiggle=2;" edge="1" parent="1">
          <mxGeometry width="50" height="50" relative="1" as="geometry">
            <mxPoint x="491" y="79.5" as="sourcePoint" />
            <mxPoint x="511" y="197.5" as="targetPoint" />
            <Array as="points">
              <mxPoint x="501" y="79.5" />
              <mxPoint x="502" y="139.5" />
              <mxPoint x="501" y="179.5" />
            </Array>
          </mxGeometry>
        </mxCell>
        <mxCell id="IBrZbxC6G9MoHd_QeGUf-168" value="" style="endArrow=classic;html=1;rounded=0;fontFamily=Comic Sans MS;fontSize=11;sketch=1;curveFitting=1;jiggle=2;opacity=40;" edge="1" parent="1">
          <mxGeometry width="50" height="50" relative="1" as="geometry">
            <mxPoint x="440.5" y="189" as="sourcePoint" />
            <mxPoint x="440.5" y="166" as="targetPoint" />
            <Array as="points" />
          </mxGeometry>
        </mxCell>
        <mxCell id="IBrZbxC6G9MoHd_QeGUf-169" value="" style="endArrow=classic;html=1;rounded=0;fontFamily=Comic Sans MS;fontSize=11;sketch=1;curveFitting=1;jiggle=2;opacity=40;" edge="1" parent="1">
          <mxGeometry width="50" height="50" relative="1" as="geometry">
            <mxPoint x="479.5" y="110" as="sourcePoint" />
            <mxPoint x="479.5" y="87" as="targetPoint" />
            <Array as="points" />
          </mxGeometry>
        </mxCell>
        <mxCell id="IBrZbxC6G9MoHd_QeGUf-170" value="" style="endArrow=classic;html=1;rounded=0;fontFamily=Comic Sans MS;fontSize=11;sketch=1;curveFitting=1;jiggle=2;opacity=40;" edge="1" parent="1">
          <mxGeometry width="50" height="50" relative="1" as="geometry">
            <mxPoint x="480.5" y="188" as="sourcePoint" />
            <mxPoint x="480.5" y="165" as="targetPoint" />
            <Array as="points" />
          </mxGeometry>
        </mxCell>
        <mxCell id="IBrZbxC6G9MoHd_QeGUf-171" value="" style="endArrow=classic;html=1;rounded=0;fontFamily=Comic Sans MS;fontSize=11;sketch=1;curveFitting=1;jiggle=2;opacity=40;" edge="1" parent="1">
          <mxGeometry width="50" height="50" relative="1" as="geometry">
            <mxPoint x="516.5" y="110" as="sourcePoint" />
            <mxPoint x="516.5" y="87" as="targetPoint" />
            <Array as="points" />
          </mxGeometry>
        </mxCell>
        <mxCell id="IBrZbxC6G9MoHd_QeGUf-172" value="" style="endArrow=classic;html=1;rounded=0;fontFamily=Comic Sans MS;fontSize=11;sketch=1;curveFitting=1;jiggle=2;opacity=40;" edge="1" parent="1">
          <mxGeometry width="50" height="50" relative="1" as="geometry">
            <mxPoint x="517.5" y="188" as="sourcePoint" />
            <mxPoint x="517.5" y="165" as="targetPoint" />
            <Array as="points" />
          </mxGeometry>
        </mxCell>
        <mxCell id="IBrZbxC6G9MoHd_QeGUf-242" value="" style="rounded=0;whiteSpace=wrap;html=1;fontFamily=Comic Sans MS;fontSize=11;fillColor=#fff2cc;strokeColor=#d6b656;gradientColor=#ffd966;" vertex="1" parent="1">
          <mxGeometry x="173" y="614" width="32" height="18" as="geometry" />
        </mxCell>
        <mxCell id="IBrZbxC6G9MoHd_QeGUf-243" value="" style="endArrow=none;html=1;rounded=0;fontFamily=Comic Sans MS;fontSize=11;entryX=0.5;entryY=0;entryDx=0;entryDy=0;exitX=0.5;exitY=1;exitDx=0;exitDy=0;fillColor=#fff2cc;strokeColor=#d6b656;gradientColor=#ffd966;" edge="1" parent="1" source="IBrZbxC6G9MoHd_QeGUf-242" target="IBrZbxC6G9MoHd_QeGUf-242">
          <mxGeometry width="50" height="50" relative="1" as="geometry">
            <mxPoint x="133" y="695" as="sourcePoint" />
            <mxPoint x="173" y="650" as="targetPoint" />
          </mxGeometry>
        </mxCell>
        <mxCell id="IBrZbxC6G9MoHd_QeGUf-245" value="" style="shape=orEllipse;perimeter=ellipsePerimeter;whiteSpace=wrap;html=1;backgroundOutline=1;" vertex="1" parent="1">
          <mxGeometry x="339" y="573" width="20" height="20" as="geometry" />
        </mxCell>
        <mxCell id="IBrZbxC6G9MoHd_QeGUf-246" value="" style="endArrow=none;html=1;rounded=0;" edge="1" parent="1">
          <mxGeometry width="50" height="50" relative="1" as="geometry">
            <mxPoint x="349" y="606" as="sourcePoint" />
            <mxPoint x="349" y="595" as="targetPoint" />
          </mxGeometry>
        </mxCell>
        <mxCell id="IBrZbxC6G9MoHd_QeGUf-248" value="" style="group" vertex="1" connectable="0" parent="1">
          <mxGeometry x="171" y="336" width="376" height="116" as="geometry" />
        </mxCell>
        <mxCell id="IBrZbxC6G9MoHd_QeGUf-249" value="" style="rounded=0;whiteSpace=wrap;html=1;fillColor=#f5f5f5;fontColor=#333333;strokeColor=#666666;" vertex="1" parent="IBrZbxC6G9MoHd_QeGUf-248">
          <mxGeometry x="1" y="5.84" width="375" height="98.16" as="geometry" />
        </mxCell>
        <mxCell id="IBrZbxC6G9MoHd_QeGUf-250" value="Trm" style="rounded=1;whiteSpace=wrap;html=1;fillColor=#dae8fc;strokeColor=#6c8ebf;" vertex="1" parent="IBrZbxC6G9MoHd_QeGUf-248">
          <mxGeometry x="26" y="29.38095238095238" width="60" height="27.619047619047617" as="geometry" />
        </mxCell>
        <mxCell id="IBrZbxC6G9MoHd_QeGUf-251" value="Trm" style="rounded=1;whiteSpace=wrap;html=1;fillColor=#dae8fc;strokeColor=#6c8ebf;" vertex="1" parent="IBrZbxC6G9MoHd_QeGUf-248">
          <mxGeometry x="148" y="29.38095238095238" width="60" height="27.619047619047617" as="geometry" />
        </mxCell>
        <mxCell id="IBrZbxC6G9MoHd_QeGUf-252" value="Trm" style="rounded=1;whiteSpace=wrap;html=1;fillColor=#dae8fc;strokeColor=#6c8ebf;" vertex="1" parent="IBrZbxC6G9MoHd_QeGUf-248">
          <mxGeometry x="289" y="29.38095238095238" width="60" height="27.619047619047617" as="geometry" />
        </mxCell>
        <mxCell id="IBrZbxC6G9MoHd_QeGUf-253" value="Trm" style="rounded=1;whiteSpace=wrap;html=1;fillColor=#dae8fc;strokeColor=#6c8ebf;" vertex="1" parent="IBrZbxC6G9MoHd_QeGUf-248">
          <mxGeometry x="26" y="70.80952380952381" width="60" height="27.619047619047617" as="geometry" />
        </mxCell>
        <mxCell id="IBrZbxC6G9MoHd_QeGUf-254" value="Trm" style="rounded=1;whiteSpace=wrap;html=1;fillColor=#dae8fc;strokeColor=#6c8ebf;" vertex="1" parent="IBrZbxC6G9MoHd_QeGUf-248">
          <mxGeometry x="148" y="70.80952380952381" width="60" height="27.619047619047617" as="geometry" />
        </mxCell>
        <mxCell id="IBrZbxC6G9MoHd_QeGUf-255" value="Trm" style="rounded=1;whiteSpace=wrap;html=1;fillColor=#dae8fc;strokeColor=#6c8ebf;" vertex="1" parent="IBrZbxC6G9MoHd_QeGUf-248">
          <mxGeometry x="289" y="70.80952380952381" width="60" height="27.619047619047617" as="geometry" />
        </mxCell>
        <mxCell id="IBrZbxC6G9MoHd_QeGUf-256" value="&lt;p style=&quot;line-height: 0%;&quot;&gt;&lt;font face=&quot;Comic Sans MS&quot;&gt;&lt;span style=&quot;font-size: 11px;&quot;&gt;...&lt;/span&gt;&lt;/font&gt;&lt;/p&gt;" style="text;strokeColor=none;align=center;fillColor=none;html=1;verticalAlign=middle;whiteSpace=wrap;rounded=0;dashed=1;" vertex="1" parent="IBrZbxC6G9MoHd_QeGUf-248">
          <mxGeometry x="236" y="25.777777777777775" width="30" height="27.619047619047617" as="geometry" />
        </mxCell>
        <mxCell id="IBrZbxC6G9MoHd_QeGUf-257" value="&lt;p style=&quot;line-height: 0%;&quot;&gt;&lt;font face=&quot;Comic Sans MS&quot;&gt;&lt;span style=&quot;font-size: 11px;&quot;&gt;...&lt;/span&gt;&lt;/font&gt;&lt;/p&gt;" style="text;strokeColor=none;align=center;fillColor=none;html=1;verticalAlign=middle;whiteSpace=wrap;rounded=0;dashed=1;" vertex="1" parent="IBrZbxC6G9MoHd_QeGUf-248">
          <mxGeometry x="237" y="67.12698412698413" width="30" height="27.619047619047617" as="geometry" />
        </mxCell>
        <mxCell id="IBrZbxC6G9MoHd_QeGUf-267" value="&lt;font style=&quot;font-size: 16px;&quot;&gt;&lt;b&gt;Basket-level Encoder&lt;/b&gt;&lt;/font&gt;" style="text;strokeColor=none;align=center;fillColor=none;html=1;verticalAlign=middle;whiteSpace=wrap;rounded=0;" vertex="1" parent="IBrZbxC6G9MoHd_QeGUf-248">
          <mxGeometry x="4" y="2" width="170" height="27.62" as="geometry" />
        </mxCell>
        <mxCell id="IBrZbxC6G9MoHd_QeGUf-277" value="" style="endArrow=none;html=1;rounded=0;entryX=0.5;entryY=1;entryDx=0;entryDy=0;exitX=0.5;exitY=0;exitDx=0;exitDy=0;" edge="1" parent="IBrZbxC6G9MoHd_QeGUf-248" source="IBrZbxC6G9MoHd_QeGUf-253" target="IBrZbxC6G9MoHd_QeGUf-250">
          <mxGeometry width="50" height="50" relative="1" as="geometry">
            <mxPoint x="41" y="165" as="sourcePoint" />
            <mxPoint x="91" y="115" as="targetPoint" />
          </mxGeometry>
        </mxCell>
        <mxCell id="IBrZbxC6G9MoHd_QeGUf-278" value="" style="endArrow=none;html=1;rounded=0;entryX=0.5;entryY=1;entryDx=0;entryDy=0;exitX=0.5;exitY=0;exitDx=0;exitDy=0;" edge="1" parent="IBrZbxC6G9MoHd_QeGUf-248" source="IBrZbxC6G9MoHd_QeGUf-254" target="IBrZbxC6G9MoHd_QeGUf-251">
          <mxGeometry width="50" height="50" relative="1" as="geometry">
            <mxPoint x="17" y="163" as="sourcePoint" />
            <mxPoint x="67" y="113" as="targetPoint" />
          </mxGeometry>
        </mxCell>
        <mxCell id="IBrZbxC6G9MoHd_QeGUf-279" value="" style="endArrow=none;html=1;rounded=0;entryX=0.5;entryY=1;entryDx=0;entryDy=0;" edge="1" parent="IBrZbxC6G9MoHd_QeGUf-248" source="IBrZbxC6G9MoHd_QeGUf-255" target="IBrZbxC6G9MoHd_QeGUf-252">
          <mxGeometry width="50" height="50" relative="1" as="geometry">
            <mxPoint x="300" y="166" as="sourcePoint" />
            <mxPoint x="350" y="116" as="targetPoint" />
          </mxGeometry>
        </mxCell>
        <mxCell id="IBrZbxC6G9MoHd_QeGUf-280" value="" style="endArrow=none;html=1;rounded=0;entryX=0.5;entryY=1;entryDx=0;entryDy=0;exitX=0.5;exitY=0;exitDx=0;exitDy=0;" edge="1" parent="IBrZbxC6G9MoHd_QeGUf-248" source="IBrZbxC6G9MoHd_QeGUf-254" target="IBrZbxC6G9MoHd_QeGUf-250">
          <mxGeometry width="50" height="50" relative="1" as="geometry">
            <mxPoint x="-283" y="147" as="sourcePoint" />
            <mxPoint x="-233" y="97" as="targetPoint" />
          </mxGeometry>
        </mxCell>
        <mxCell id="IBrZbxC6G9MoHd_QeGUf-281" value="" style="endArrow=none;html=1;rounded=0;entryX=0.5;entryY=0;entryDx=0;entryDy=0;exitX=0.5;exitY=1;exitDx=0;exitDy=0;" edge="1" parent="IBrZbxC6G9MoHd_QeGUf-248" source="IBrZbxC6G9MoHd_QeGUf-252" target="IBrZbxC6G9MoHd_QeGUf-254">
          <mxGeometry width="50" height="50" relative="1" as="geometry">
            <mxPoint x="188" y="81" as="sourcePoint" />
            <mxPoint x="66" y="67" as="targetPoint" />
          </mxGeometry>
        </mxCell>
        <mxCell id="IBrZbxC6G9MoHd_QeGUf-283" value="" style="endArrow=none;html=1;rounded=0;exitX=0.5;exitY=0;exitDx=0;exitDy=0;entryX=0.5;entryY=1;entryDx=0;entryDy=0;" edge="1" parent="IBrZbxC6G9MoHd_QeGUf-248" source="IBrZbxC6G9MoHd_QeGUf-253" target="IBrZbxC6G9MoHd_QeGUf-251">
          <mxGeometry width="50" height="50" relative="1" as="geometry">
            <mxPoint x="57" y="154" as="sourcePoint" />
            <mxPoint x="105" y="107" as="targetPoint" />
          </mxGeometry>
        </mxCell>
        <mxCell id="IBrZbxC6G9MoHd_QeGUf-284" value="" style="endArrow=none;html=1;rounded=0;exitX=0.5;exitY=0;exitDx=0;exitDy=0;entryX=0.5;entryY=1;entryDx=0;entryDy=0;" edge="1" parent="IBrZbxC6G9MoHd_QeGUf-248" source="IBrZbxC6G9MoHd_QeGUf-253" target="IBrZbxC6G9MoHd_QeGUf-252">
          <mxGeometry width="50" height="50" relative="1" as="geometry">
            <mxPoint x="105" y="173.5" as="sourcePoint" />
            <mxPoint x="-301" y="14" as="targetPoint" />
          </mxGeometry>
        </mxCell>
        <mxCell id="IBrZbxC6G9MoHd_QeGUf-275" value="" style="endArrow=none;html=1;rounded=0;entryX=0.5;entryY=1;entryDx=0;entryDy=0;exitX=0.5;exitY=0;exitDx=0;exitDy=0;" edge="1" parent="IBrZbxC6G9MoHd_QeGUf-248" source="IBrZbxC6G9MoHd_QeGUf-255" target="IBrZbxC6G9MoHd_QeGUf-251">
          <mxGeometry width="50" height="50" relative="1" as="geometry">
            <mxPoint x="224" y="180" as="sourcePoint" />
            <mxPoint x="274" y="130" as="targetPoint" />
          </mxGeometry>
        </mxCell>
        <mxCell id="IBrZbxC6G9MoHd_QeGUf-282" value="" style="endArrow=none;html=1;rounded=0;entryX=0.5;entryY=1;entryDx=0;entryDy=0;exitX=0.5;exitY=0;exitDx=0;exitDy=0;" edge="1" parent="IBrZbxC6G9MoHd_QeGUf-248" source="IBrZbxC6G9MoHd_QeGUf-255" target="IBrZbxC6G9MoHd_QeGUf-250">
          <mxGeometry width="50" height="50" relative="1" as="geometry">
            <mxPoint x="190" y="180" as="sourcePoint" />
            <mxPoint x="240" y="130" as="targetPoint" />
          </mxGeometry>
        </mxCell>
        <mxCell id="IBrZbxC6G9MoHd_QeGUf-285" value="" style="group" vertex="1" connectable="0" parent="1">
          <mxGeometry x="171" y="448" width="376" height="116" as="geometry" />
        </mxCell>
        <mxCell id="IBrZbxC6G9MoHd_QeGUf-286" value="" style="rounded=0;whiteSpace=wrap;html=1;fillColor=#f5f5f5;fontColor=#333333;strokeColor=#666666;" vertex="1" parent="IBrZbxC6G9MoHd_QeGUf-285">
          <mxGeometry x="1" y="5.84" width="375" height="98.16" as="geometry" />
        </mxCell>
        <mxCell id="IBrZbxC6G9MoHd_QeGUf-287" value="Trm" style="rounded=1;whiteSpace=wrap;html=1;fillColor=#dae8fc;strokeColor=#6c8ebf;" vertex="1" parent="IBrZbxC6G9MoHd_QeGUf-285">
          <mxGeometry x="26" y="29.38095238095238" width="60" height="27.619047619047617" as="geometry" />
        </mxCell>
        <mxCell id="IBrZbxC6G9MoHd_QeGUf-288" value="Trm" style="rounded=1;whiteSpace=wrap;html=1;fillColor=#dae8fc;strokeColor=#6c8ebf;" vertex="1" parent="IBrZbxC6G9MoHd_QeGUf-285">
          <mxGeometry x="148" y="29.38095238095238" width="60" height="27.619047619047617" as="geometry" />
        </mxCell>
        <mxCell id="IBrZbxC6G9MoHd_QeGUf-289" value="Trm" style="rounded=1;whiteSpace=wrap;html=1;fillColor=#dae8fc;strokeColor=#6c8ebf;" vertex="1" parent="IBrZbxC6G9MoHd_QeGUf-285">
          <mxGeometry x="289" y="29.38095238095238" width="60" height="27.619047619047617" as="geometry" />
        </mxCell>
        <mxCell id="IBrZbxC6G9MoHd_QeGUf-290" value="Trm" style="rounded=1;whiteSpace=wrap;html=1;fillColor=#dae8fc;strokeColor=#6c8ebf;" vertex="1" parent="IBrZbxC6G9MoHd_QeGUf-285">
          <mxGeometry x="26" y="70.80952380952381" width="60" height="27.619047619047617" as="geometry" />
        </mxCell>
        <mxCell id="IBrZbxC6G9MoHd_QeGUf-291" value="Trm" style="rounded=1;whiteSpace=wrap;html=1;fillColor=#dae8fc;strokeColor=#6c8ebf;" vertex="1" parent="IBrZbxC6G9MoHd_QeGUf-285">
          <mxGeometry x="148" y="70.80952380952381" width="60" height="27.619047619047617" as="geometry" />
        </mxCell>
        <mxCell id="IBrZbxC6G9MoHd_QeGUf-292" value="Trm" style="rounded=1;whiteSpace=wrap;html=1;fillColor=#dae8fc;strokeColor=#6c8ebf;" vertex="1" parent="IBrZbxC6G9MoHd_QeGUf-285">
          <mxGeometry x="289" y="70.80952380952381" width="60" height="27.619047619047617" as="geometry" />
        </mxCell>
        <mxCell id="IBrZbxC6G9MoHd_QeGUf-293" value="&lt;p style=&quot;line-height: 0%;&quot;&gt;&lt;font face=&quot;Comic Sans MS&quot;&gt;&lt;span style=&quot;font-size: 11px;&quot;&gt;...&lt;/span&gt;&lt;/font&gt;&lt;/p&gt;" style="text;strokeColor=none;align=center;fillColor=none;html=1;verticalAlign=middle;whiteSpace=wrap;rounded=0;dashed=1;" vertex="1" parent="IBrZbxC6G9MoHd_QeGUf-285">
          <mxGeometry x="236" y="25.777777777777775" width="30" height="27.619047619047617" as="geometry" />
        </mxCell>
        <mxCell id="IBrZbxC6G9MoHd_QeGUf-294" value="&lt;p style=&quot;line-height: 0%;&quot;&gt;&lt;font face=&quot;Comic Sans MS&quot;&gt;&lt;span style=&quot;font-size: 11px;&quot;&gt;...&lt;/span&gt;&lt;/font&gt;&lt;/p&gt;" style="text;strokeColor=none;align=center;fillColor=none;html=1;verticalAlign=middle;whiteSpace=wrap;rounded=0;dashed=1;" vertex="1" parent="IBrZbxC6G9MoHd_QeGUf-285">
          <mxGeometry x="237" y="67.12698412698413" width="30" height="27.619047619047617" as="geometry" />
        </mxCell>
        <mxCell id="IBrZbxC6G9MoHd_QeGUf-295" value="&lt;font style=&quot;font-size: 16px;&quot;&gt;&lt;b&gt;Item-level Encoder&lt;/b&gt;&lt;/font&gt;" style="text;strokeColor=none;align=center;fillColor=none;html=1;verticalAlign=middle;whiteSpace=wrap;rounded=0;" vertex="1" parent="IBrZbxC6G9MoHd_QeGUf-285">
          <mxGeometry x="-4" y="2" width="170" height="27.62" as="geometry" />
        </mxCell>
        <mxCell id="IBrZbxC6G9MoHd_QeGUf-296" value="" style="endArrow=none;html=1;rounded=0;entryX=0.5;entryY=1;entryDx=0;entryDy=0;exitX=0.5;exitY=0;exitDx=0;exitDy=0;" edge="1" parent="IBrZbxC6G9MoHd_QeGUf-285" source="IBrZbxC6G9MoHd_QeGUf-290" target="IBrZbxC6G9MoHd_QeGUf-287">
          <mxGeometry width="50" height="50" relative="1" as="geometry">
            <mxPoint x="41" y="165" as="sourcePoint" />
            <mxPoint x="91" y="115" as="targetPoint" />
          </mxGeometry>
        </mxCell>
        <mxCell id="IBrZbxC6G9MoHd_QeGUf-297" value="" style="endArrow=none;html=1;rounded=0;entryX=0.5;entryY=1;entryDx=0;entryDy=0;exitX=0.5;exitY=0;exitDx=0;exitDy=0;" edge="1" parent="IBrZbxC6G9MoHd_QeGUf-285" source="IBrZbxC6G9MoHd_QeGUf-291" target="IBrZbxC6G9MoHd_QeGUf-288">
          <mxGeometry width="50" height="50" relative="1" as="geometry">
            <mxPoint x="17" y="163" as="sourcePoint" />
            <mxPoint x="67" y="113" as="targetPoint" />
          </mxGeometry>
        </mxCell>
        <mxCell id="IBrZbxC6G9MoHd_QeGUf-298" value="" style="endArrow=none;html=1;rounded=0;entryX=0.5;entryY=1;entryDx=0;entryDy=0;" edge="1" parent="IBrZbxC6G9MoHd_QeGUf-285" source="IBrZbxC6G9MoHd_QeGUf-292" target="IBrZbxC6G9MoHd_QeGUf-289">
          <mxGeometry width="50" height="50" relative="1" as="geometry">
            <mxPoint x="300" y="166" as="sourcePoint" />
            <mxPoint x="350" y="116" as="targetPoint" />
          </mxGeometry>
        </mxCell>
        <mxCell id="IBrZbxC6G9MoHd_QeGUf-299" value="" style="endArrow=none;html=1;rounded=0;entryX=0.5;entryY=1;entryDx=0;entryDy=0;exitX=0.5;exitY=0;exitDx=0;exitDy=0;" edge="1" parent="IBrZbxC6G9MoHd_QeGUf-285" source="IBrZbxC6G9MoHd_QeGUf-291" target="IBrZbxC6G9MoHd_QeGUf-287">
          <mxGeometry width="50" height="50" relative="1" as="geometry">
            <mxPoint x="-283" y="147" as="sourcePoint" />
            <mxPoint x="-233" y="97" as="targetPoint" />
          </mxGeometry>
        </mxCell>
        <mxCell id="IBrZbxC6G9MoHd_QeGUf-300" value="" style="endArrow=none;html=1;rounded=0;entryX=0.5;entryY=0;entryDx=0;entryDy=0;exitX=0.5;exitY=1;exitDx=0;exitDy=0;" edge="1" parent="IBrZbxC6G9MoHd_QeGUf-285" source="IBrZbxC6G9MoHd_QeGUf-289" target="IBrZbxC6G9MoHd_QeGUf-291">
          <mxGeometry width="50" height="50" relative="1" as="geometry">
            <mxPoint x="188" y="81" as="sourcePoint" />
            <mxPoint x="66" y="67" as="targetPoint" />
          </mxGeometry>
        </mxCell>
        <mxCell id="IBrZbxC6G9MoHd_QeGUf-301" value="" style="endArrow=none;html=1;rounded=0;exitX=0.5;exitY=0;exitDx=0;exitDy=0;entryX=0.5;entryY=1;entryDx=0;entryDy=0;" edge="1" parent="IBrZbxC6G9MoHd_QeGUf-285" source="IBrZbxC6G9MoHd_QeGUf-290" target="IBrZbxC6G9MoHd_QeGUf-288">
          <mxGeometry width="50" height="50" relative="1" as="geometry">
            <mxPoint x="57" y="154" as="sourcePoint" />
            <mxPoint x="105" y="107" as="targetPoint" />
          </mxGeometry>
        </mxCell>
        <mxCell id="IBrZbxC6G9MoHd_QeGUf-302" value="" style="endArrow=none;html=1;rounded=0;exitX=0.5;exitY=0;exitDx=0;exitDy=0;entryX=0.5;entryY=1;entryDx=0;entryDy=0;" edge="1" parent="IBrZbxC6G9MoHd_QeGUf-285" source="IBrZbxC6G9MoHd_QeGUf-290" target="IBrZbxC6G9MoHd_QeGUf-289">
          <mxGeometry width="50" height="50" relative="1" as="geometry">
            <mxPoint x="105" y="173.5" as="sourcePoint" />
            <mxPoint x="-301" y="14" as="targetPoint" />
          </mxGeometry>
        </mxCell>
        <mxCell id="IBrZbxC6G9MoHd_QeGUf-303" value="" style="endArrow=none;html=1;rounded=0;entryX=0.5;entryY=1;entryDx=0;entryDy=0;exitX=0.5;exitY=0;exitDx=0;exitDy=0;" edge="1" parent="IBrZbxC6G9MoHd_QeGUf-285" source="IBrZbxC6G9MoHd_QeGUf-292" target="IBrZbxC6G9MoHd_QeGUf-288">
          <mxGeometry width="50" height="50" relative="1" as="geometry">
            <mxPoint x="224" y="180" as="sourcePoint" />
            <mxPoint x="274" y="130" as="targetPoint" />
          </mxGeometry>
        </mxCell>
        <mxCell id="IBrZbxC6G9MoHd_QeGUf-304" value="" style="endArrow=none;html=1;rounded=0;entryX=0.5;entryY=1;entryDx=0;entryDy=0;exitX=0.5;exitY=0;exitDx=0;exitDy=0;" edge="1" parent="IBrZbxC6G9MoHd_QeGUf-285" source="IBrZbxC6G9MoHd_QeGUf-292" target="IBrZbxC6G9MoHd_QeGUf-287">
          <mxGeometry width="50" height="50" relative="1" as="geometry">
            <mxPoint x="190" y="180" as="sourcePoint" />
            <mxPoint x="240" y="130" as="targetPoint" />
          </mxGeometry>
        </mxCell>
        <mxCell id="IBrZbxC6G9MoHd_QeGUf-310" value="" style="group" vertex="1" connectable="0" parent="1">
          <mxGeometry x="282" y="573" width="30" height="30" as="geometry" />
        </mxCell>
        <mxCell id="IBrZbxC6G9MoHd_QeGUf-311" value="" style="ellipse;whiteSpace=wrap;html=1;aspect=fixed;" vertex="1" parent="IBrZbxC6G9MoHd_QeGUf-310">
          <mxGeometry y="1.43" width="20" height="20" as="geometry" />
        </mxCell>
        <mxCell id="IBrZbxC6G9MoHd_QeGUf-312" value="" style="curved=1;endArrow=none;html=1;rounded=0;endFill=0;entryX=0;entryY=0.5;entryDx=0;entryDy=0;exitX=1;exitY=0.5;exitDx=0;exitDy=0;" edge="1" parent="IBrZbxC6G9MoHd_QeGUf-310" source="IBrZbxC6G9MoHd_QeGUf-311" target="IBrZbxC6G9MoHd_QeGUf-311">
          <mxGeometry width="50" height="50" relative="1" as="geometry">
            <mxPoint x="30" y="4.761904761904762" as="sourcePoint" />
            <mxPoint x="22.5" y="-4.761904761904762" as="targetPoint" />
            <Array as="points">
              <mxPoint x="10" y="19" />
              <mxPoint x="10" y="4.761904761904762" />
            </Array>
          </mxGeometry>
        </mxCell>
        <mxCell id="IBrZbxC6G9MoHd_QeGUf-313" value="" style="group" vertex="1" connectable="0" parent="1">
          <mxGeometry x="394" y="573" width="30" height="30" as="geometry" />
        </mxCell>
        <mxCell id="IBrZbxC6G9MoHd_QeGUf-314" value="" style="ellipse;whiteSpace=wrap;html=1;aspect=fixed;" vertex="1" parent="IBrZbxC6G9MoHd_QeGUf-313">
          <mxGeometry y="1.43" width="20" height="20" as="geometry" />
        </mxCell>
        <mxCell id="IBrZbxC6G9MoHd_QeGUf-315" value="" style="curved=1;endArrow=none;html=1;rounded=0;endFill=0;entryX=0;entryY=0.5;entryDx=0;entryDy=0;exitX=1;exitY=0.5;exitDx=0;exitDy=0;" edge="1" parent="IBrZbxC6G9MoHd_QeGUf-313" source="IBrZbxC6G9MoHd_QeGUf-314" target="IBrZbxC6G9MoHd_QeGUf-314">
          <mxGeometry width="50" height="50" relative="1" as="geometry">
            <mxPoint x="30" y="4.761904761904762" as="sourcePoint" />
            <mxPoint x="22.5" y="-4.761904761904762" as="targetPoint" />
            <Array as="points">
              <mxPoint x="10" y="19" />
              <mxPoint x="10" y="4.761904761904762" />
            </Array>
          </mxGeometry>
        </mxCell>
        <mxCell id="IBrZbxC6G9MoHd_QeGUf-318" value="" style="endArrow=none;html=1;rounded=0;entryX=0;entryY=0.5;entryDx=0;entryDy=0;" edge="1" parent="1">
          <mxGeometry width="50" height="50" relative="1" as="geometry">
            <mxPoint x="307" y="583" as="sourcePoint" />
            <mxPoint x="334" y="583" as="targetPoint" />
          </mxGeometry>
        </mxCell>
        <mxCell id="IBrZbxC6G9MoHd_QeGUf-319" value="" style="endArrow=none;html=1;rounded=0;entryX=0;entryY=0.5;entryDx=0;entryDy=0;" edge="1" parent="1">
          <mxGeometry width="50" height="50" relative="1" as="geometry">
            <mxPoint x="363" y="583" as="sourcePoint" />
            <mxPoint x="390" y="583" as="targetPoint" />
          </mxGeometry>
        </mxCell>
      </root>
    </mxGraphModel>
  </diagram>
</mxfile>
